<svg xmlns:xlink="http://www.w3.org/1999/xlink" xmlns="http://www.w3.org/2000/svg" width="100%" height="100%"> 
<g id="normalizer" transform="translate(913.5, 913.5)" > <!-- 13.5 !? -->


<!-- ******************* grid group *************** -->
<g id="grid" style="display: block" >
  
  <!-- origin marker -->
  <!--
  <circle id="cr" cx="0" cy="0" r="2" style="fill:#ff1000" />
  <circle id="cw" cx="0" cy="0" r="0.8" style="fill:white" />
  -->
  <rect id="rg" x="0" y="0" width="1.0" height="1.0" style="fill:#9999ff" />

  <g id="lines" stroke="black" stroke-width="0.02" > <!-- stroke-width="0.1" -->
    <!-- horizontal -->
    <line x1="-1000" y1="-1000" x2="1000" y2="-1000"/>
    <line x1="-1000" y1="-950" x2="1000" y2="-950"/>
    <line x1="-1000" y1="-900" x2="1000" y2="-900"/>
    <line x1="-1000" y1="-850" x2="1000" y2="-850"/>
    <line x1="-1000" y1="-800" x2="1000" y2="-800"/>
    <line x1="-1000" y1="-750" x2="1000" y2="-750"/>
    <line x1="-1000" y1="-700" x2="1000" y2="-700"/>
    <line x1="-1000" y1="-650" x2="1000" y2="-650"/>
    <line x1="-1000" y1="-600" x2="1000" y2="-600"/>
    <line x1="-1000" y1="-550" x2="1000" y2="-550"/>
    <line x1="-1000" y1="-500" x2="1000" y2="-500"/>
    <line x1="-1000" y1="-450" x2="1000" y2="-450"/>
    <line x1="-1000" y1="-400" x2="1000" y2="-400"/>
    <line x1="-1000" y1="-350" x2="1000" y2="-350"/>
    <line x1="-1000" y1="-300" x2="1000" y2="-300"/>
    <line x1="-1000" y1="-250" x2="1000" y2="-250"/>
    <line x1="-1000" y1="-200" x2="1000" y2="-200"/>
    <line x1="-1000" y1="-150" x2="1000" y2="-150"/>
    <line x1="-1000" y1="-100" x2="1000" y2="-100"/>
    <line x1="-1000" y1="-50" x2="1000" y2="-50"/>
    <line x1="-1000" y1="0" x2="1000" y2="0"/>
    <line x1="-1000" y1="50" x2="1000" y2="50"/>
    <line x1="-1000" y1="100" x2="1000" y2="100"/>
    <line x1="-1000" y1="150" x2="1000" y2="150"/>
    <line x1="-1000" y1="200" x2="1000" y2="200"/>
    <line x1="-1000" y1="250" x2="1000" y2="250"/>
    <line x1="-1000" y1="300" x2="1000" y2="300"/>
    <line x1="-1000" y1="350" x2="1000" y2="350"/>
    <line x1="-1000" y1="400" x2="1000" y2="400"/>
    <line x1="-1000" y1="450" x2="1000" y2="450"/>
    <line x1="-1000" y1="500" x2="1000" y2="500"/>
    <line x1="-1000" y1="550" x2="1000" y2="550"/>
    <line x1="-1000" y1="600" x2="1000" y2="600"/>
    <line x1="-1000" y1="650" x2="1000" y2="650"/>
    <line x1="-1000" y1="700" x2="1000" y2="700"/>
    <line x1="-1000" y1="750" x2="1000" y2="750"/>
    <line x1="-1000" y1="800" x2="1000" y2="800"/>
    <line x1="-1000" y1="850" x2="1000" y2="850"/>
    <line x1="-1000" y1="900" x2="1000" y2="900"/>
    <line x1="-1000" y1="950" x2="1000" y2="950"/>
    <line x1="-1000" y1="1000" x2="1000" y2="1000"/>

    <!-- vertical -->
    <line x1="-1000" y1="-1000" x2="-1000" y2="1000"/>
    <line x1="-950" y1="-1000" x2="-950" y2="1000"/>
    <line x1="-900" y1="-1000" x2="-900" y2="1000"/>
    <line x1="-850" y1="-1000" x2="-850" y2="1000"/>
    <line x1="-800" y1="-1000" x2="-800" y2="1000"/>
    <line x1="-750" y1="-1000" x2="-750" y2="1000"/>
    <line x1="-700" y1="-1000" x2="-700" y2="1000"/>
    <line x1="-650" y1="-1000" x2="-650" y2="1000"/>
    <line x1="-600" y1="-1000" x2="-600" y2="1000"/>
    <line x1="-550" y1="-1000" x2="-550" y2="1000"/>
    <line x1="-500" y1="-1000" x2="-500" y2="1000"/>
    <line x1="-450" y1="-1000" x2="-450" y2="1000"/>
    <line x1="-400" y1="-1000" x2="-400" y2="1000"/>
    <line x1="-350" y1="-1000" x2="-350" y2="1000"/>
    <line x1="-300" y1="-1000" x2="-300" y2="1000"/>
    <line x1="-250" y1="-1000" x2="-250" y2="1000"/>
    <line x1="-200" y1="-1000" x2="-200" y2="1000"/>
    <line x1="-150" y1="-1000" x2="-150" y2="1000"/>
    <line x1="-100" y1="-1000" x2="-100" y2="1000"/>
    <line x1="-50" y1="-1000" x2="-50" y2="1000"/>
    <line x1="0" y1="-1000" x2="0" y2="1000"/>
    <line x1="1000" y1="-1000" x2="1000" y2="1000"/>
    <line x1="950" y1="-1000" x2="950" y2="1000"/>
    <line x1="900" y1="-1000" x2="900" y2="1000"/>
    <line x1="850" y1="-1000" x2="850" y2="1000"/>
    <line x1="800" y1="-1000" x2="800" y2="1000"/>
    <line x1="750" y1="-1000" x2="750" y2="1000"/>
    <line x1="700" y1="-1000" x2="700" y2="1000"/>
    <line x1="650" y1="-1000" x2="650" y2="1000"/>
    <line x1="600" y1="-1000" x2="600" y2="1000"/>
    <line x1="550" y1="-1000" x2="550" y2="1000"/>
    <line x1="500" y1="-1000" x2="500" y2="1000"/>
    <line x1="450" y1="-1000" x2="450" y2="1000"/>
    <line x1="400" y1="-1000" x2="400" y2="1000"/>
    <line x1="350" y1="-1000" x2="350" y2="1000"/>
    <line x1="300" y1="-1000" x2="300" y2="1000"/>
    <line x1="250" y1="-1000" x2="250" y2="1000"/>
    <line x1="200" y1="-1000" x2="200" y2="1000"/>
    <line x1="150" y1="-1000" x2="150" y2="1000"/>
    <line x1="100" y1="-1000" x2="100" y2="1000"/>
    <line x1="50" y1="-1000" x2="50" y2="1000"/>
  </g><!-- lines -->



  <!-- coordinates marking gridpoints -->
  <g id="axes" font-family="neuropol" font-size="1.5pt" style="display:block"> 
    <!-- y-axis coordinates -->
    <text x="0" y="-50">-50</text>
    <text x="0" y="-45">-45</text>
    <text x="0" y="-40">-40</text>
    <text x="0" y="-35">-35</text>
    <text x="0" y="-30">-30</text>
    <text x="0" y="-25">-25</text>
    <text x="0" y="-20">-20</text>
    <text x="0" y="-15">-15</text>
    <text x="0" y="-10">-10</text>
    <text x="0" y="-5">-5</text>
    <text x="0" y="0">0</text>
    <text x="0" y="5">5</text>
    <text x="0" y="10">10</text>
    <text x="0" y="15">15</text>
    <text x="0" y="20">20</text>
    <text x="0" y="25">25</text>
    <text x="0" y="30">30</text>
    <text x="0" y="35">35</text>
    <text x="0" y="40">40</text>
    <text x="0" y="45">45</text>
    <text x="0" y="50">50</text>
    
    <!-- x-axis coordinates -->
    <text x="-50" y="0">-50</text>
    <text x="-45" y="0">-45</text>
    <text x="-40" y="0">-40</text>
    <text x="-35" y="0">-35</text>
    <text x="-30" y="0">-30</text>
    <text x="-25" y="0">-25</text>
    <text x="-20" y="0">-20</text>
    <text x="-15" y="0">-15</text>
    <text x="-10" y="0">-10</text>
    <text x="-5" y="0">-5</text>
    <text x="0" y="0">0</text>
    <text x="5" y="0">5</text>
    <text x="10" y="0">10</text>
    <text x="15" y="0">15</text>
    <text x="20" y="0">20</text>
    <text x="25" y="0">25</text>
    <text x="30" y="0">30</text>
    <text x="35" y="0">35</text>
    <text x="40" y="0">40</text>
    <text x="45" y="0">45</text>
    <text x="50" y="0">50</text>
  </g><!-- axes -->



  <g id="matrix_cells" font-family="neuropol" font-size="5pt" style="display:block" > 
    <!-- row0 -->
    <text x="-900" y="-1">-9,0</text>
    <text x="-800" y="-1">-8,0</text>
    <text x="-700" y="-1">-7,0</text>
    <text x="-600" y="-1">-6,0</text>
    <text x="-500" y="-1">-5,0</text>
    <text x="-400" y="-1">-4,0</text>
    <text x="-300" y="-1">-3,0</text>
    <text x="-200" y="-1">-2,0</text>
    <text x="-100" y="-1">-1,0</text>
    <text x="0" y="-1">0,0</text>
    <text x="100" y="-1">1,0</text>
    <text x="200" y="-1">2,0</text>
    <text x="300" y="-1">3,0</text>
    <text x="400" y="-1">4,0</text>
    <text x="500" y="-1">5,0</text>
    <text x="600" y="-1">6,0</text>
    <text x="700" y="-1">7,0</text>
    <text x="800" y="-1">8,0</text>
    <text x="900" y="-1">9,0</text>

    <!-- row1 -->
    <text x="-900" y="99">-9,1</text>
    <text x="-800" y="99">-8,1</text>
    <text x="-700" y="99">-7,1</text>
    <text x="-600" y="99">-6,1</text>
    <text x="-500" y="99">-5,1</text>
    <text x="-400" y="99">-4,1</text>
    <text x="-300" y="99">-3,1</text>
    <text x="-200" y="99">-2,1</text>
    <text x="-100" y="99">-1,1</text>
    <text x="0" y="99">0,1</text>
    <text x="100" y="99">1,1</text>
    <text x="200" y="99">2,1</text>
    <text x="300" y="99">3,1</text>
    <text x="400" y="99">4,1</text>
    <text x="500" y="99">5,1</text>
    <text x="600" y="99">6,1</text>
    <text x="700" y="99">7,1</text>
    <text x="800" y="99">8,1</text>
    <text x="900" y="99">9,1</text>

    <!-- row2 -->
    <text x="-900" y="199">-9,2</text>
    <text x="-800" y="199">-8,2</text>
    <text x="-700" y="199">-7,2</text>
    <text x="-600" y="199">-6,2</text>
    <text x="-500" y="199">-5,2</text>
    <text x="-400" y="199">-4,2</text>
    <text x="-300" y="199">-3,2</text>
    <text x="-200" y="199">-2,2</text>
    <text x="-100" y="199">-1,2</text>
    <text x="0" y="199">0,2</text>
    <text x="100" y="199">1,2</text>
    <text x="200" y="199">2,2</text>
    <text x="300" y="199">3,2</text>
    <text x="400" y="199">4,2</text>
    <text x="500" y="199">5,2</text>
    <text x="600" y="199">6,2</text>
    <text x="700" y="199">7,2</text>
    <text x="800" y="199">8,2</text>
    <text x="900" y="199">9,2</text>

    <!-- row3 -->
    <text x="-900" y="299">-9,3</text>
    <text x="-800" y="299">-8,3</text>
    <text x="-700" y="299">-7,3</text>
    <text x="-600" y="299">-6,3</text>
    <text x="-500" y="299">-5,3</text>
    <text x="-400" y="299">-4,3</text>
    <text x="-300" y="299">-3,3</text>
    <text x="-200" y="299">-2,3</text>
    <text x="-100" y="299">-1,3</text>
    <text x="0" y="299">0,3</text>
    <text x="100" y="299">1,3</text>
    <text x="200" y="299">2,3</text>
    <text x="300" y="299">3,3</text>
    <text x="400" y="299">4,3</text>
    <text x="500" y="299">5,3</text>
    <text x="600" y="299">6,3</text>
    <text x="700" y="299">7,3</text>
    <text x="800" y="299">8,3</text>
    <text x="900" y="299">9,3</text>

    <!-- row 4 -->
    <text x="-900" y="399">-9,4</text>
    <text x="-800" y="399">-8,4</text>
    <text x="-700" y="399">-7,4</text>
    <text x="-600" y="399">-6,4</text>
    <text x="-500" y="399">-5,4</text>
    <text x="-400" y="399">-4,4</text>
    <text x="-300" y="399">-3,4</text>
    <text x="-200" y="399">-2,4</text>
    <text x="-100" y="399">-1,4</text>
    <text x="0" y="399">0,4</text>
    <text x="100" y="399">1,4</text>
    <text x="200" y="399">2,4</text>
    <text x="300" y="399">3,4</text>
    <text x="400" y="399">4,4</text>
    <text x="500" y="399">5,4</text>
    <text x="600" y="399">6,4</text>
    <text x="700" y="399">7,4</text>
    <text x="800" y="399">8,4</text>
    <text x="900" y="399">9,4</text>

    <!-- row 5 -->
    <text x="-900" y="499">-9,5</text>
    <text x="-800" y="499">-8,5</text>
    <text x="-700" y="499">-7,5</text>
    <text x="-600" y="499">-6,5</text>
    <text x="-500" y="499">-5,5</text>
    <text x="-400" y="499">-4,5</text>
    <text x="-300" y="499">-3,5</text>
    <text x="-200" y="499">-2,5</text>
    <text x="-100" y="499">-1,5</text>
    <text x="0" y="499">0,5</text>
    <text x="100" y="499">1,5</text>
    <text x="200" y="499">2,5</text>
    <text x="300" y="499">3,5</text>
    <text x="400" y="499">4,5</text>
    <text x="500" y="499">5,5</text>
    <text x="600" y="499">6,5</text>
    <text x="700" y="499">7,5</text>
    <text x="800" y="499">8,5</text>
    <text x="900" y="499">9,5</text>

    <!-- row 6 -->
    <text x="-900" y="599">-9,6</text>
    <text x="-800" y="599">-8,6</text>
    <text x="-700" y="599">-7,6</text>
    <text x="-600" y="599">-6,6</text>
    <text x="-500" y="599">-5,6</text>
    <text x="-400" y="599">-4,6</text>
    <text x="-300" y="599">-3,6</text>
    <text x="-200" y="599">-2,6</text>
    <text x="-100" y="599">-1,6</text>
    <text x="0" y="599">0,6</text>
    <text x="100" y="599">1,6</text>
    <text x="200" y="599">2,6</text>
    <text x="300" y="599">3,6</text>
    <text x="400" y="599">4,6</text>
    <text x="500" y="599">5,6</text>
    <text x="600" y="599">6,6</text>
    <text x="700" y="599">7,6</text>
    <text x="800" y="599">8,6</text>
    <text x="900" y="599">9,6</text>

    <!-- row 7 -->
    <text x="-900" y="699">-9,7</text>
    <text x="-800" y="699">-8,7</text>
    <text x="-700" y="699">-7,7</text>
    <text x="-600" y="699">-6,7</text>
    <text x="-500" y="699">-5,7</text>
    <text x="-400" y="699">-4,7</text>
    <text x="-300" y="699">-3,7</text>
    <text x="-200" y="699">-2,7</text>
    <text x="-100" y="699">-1,7</text>
    <text x="0" y="699">0,7</text>
    <text x="100" y="699">1,7</text>
    <text x="200" y="699">2,7</text>
    <text x="300" y="699">3,7</text>
    <text x="400" y="699">4,7</text>
    <text x="500" y="699">5,7</text>
    <text x="600" y="699">6,7</text>
    <text x="700" y="699">7,7</text>
    <text x="800" y="699">8,7</text>
    <text x="900" y="699">9,7</text>

    <!-- row 8 -->
    <text x="-900" y="799">-9,8</text>
    <text x="-800" y="799">-8,8</text>
    <text x="-700" y="799">-7,8</text>
    <text x="-600" y="799">-6,8</text>
    <text x="-500" y="799">-5,8</text>
    <text x="-400" y="799">-4,8</text>
    <text x="-300" y="799">-3,8</text>
    <text x="-200" y="799">-2,8</text>
    <text x="-100" y="799">-1,8</text>
    <text x="0" y="799">0,8</text>
    <text x="100" y="799">1,8</text>
    <text x="200" y="799">2,8</text>
    <text x="300" y="799">3,8</text>
    <text x="400" y="799">4,8</text>
    <text x="500" y="799">5,8</text>
    <text x="600" y="799">6,8</text>
    <text x="700" y="799">7,8</text>
    <text x="800" y="799">8,8</text>
    <text x="900" y="799">9,8</text>

    <!-- row 9 -->
    <text x="-900" y="899">-9,9</text>
    <text x="-800" y="899">-8,9</text>
    <text x="-700" y="899">-7,9</text>
    <text x="-600" y="899">-6,9</text>
    <text x="-500" y="899">-5,9</text>
    <text x="-400" y="899">-4,9</text>
    <text x="-300" y="899">-3,9</text>
    <text x="-200" y="899">-2,9</text>
    <text x="-100" y="899">-1,9</text>
    <text x="0" y="899">0,9</text>
    <text x="100" y="899">1,9</text>
    <text x="200" y="899">2,9</text>
    <text x="300" y="899">3,9</text>
    <text x="400" y="899">4,9</text>
    <text x="500" y="899">5,9</text>
    <text x="600" y="899">6,9</text>
    <text x="700" y="899">7,9</text>
    <text x="800" y="899">8,9</text>
    <text x="900" y="899">9,9</text>


    <!-- row -1 -->
    <text x="-900" y="-101">-9,-1</text>
    <text x="-800" y="-101">-8,-1</text>
    <text x="-700" y="-101">-7,-1</text>
    <text x="-600" y="-101">-6,-1</text>
    <text x="-500" y="-101">-5,-1</text>
    <text x="-400" y="-101">-4,-1</text>
    <text x="-300" y="-101">-3,-1</text>
    <text x="-200" y="-101">-2,-1</text>
    <text x="-100" y="-101">-1,-1</text>
    <text x="0" y="-101">0,-1</text>
    <text x="100" y="-101">1,-1</text>
    <text x="200" y="-101">2,-1</text>
    <text x="300" y="-101">3,-1</text>
    <text x="400" y="-101">4,-1</text>
    <text x="500" y="-101">5,-1</text>
    <text x="600" y="-101">6,-1</text>
    <text x="700" y="-101">7,-1</text>
    <text x="800" y="-101">8,-1</text>
    <text x="900" y="-101">9,-1</text>

    <!-- row -2 -->
    <text x="-900" y="-201">-9,-2</text>
    <text x="-800" y="-201">-8,-2</text>
    <text x="-700" y="-201">-7,-2</text>
    <text x="-600" y="-201">-6,-2</text>
    <text x="-500" y="-201">-5,-2</text>
    <text x="-400" y="-201">-4,-2</text>
    <text x="-300" y="-201">-3,-2</text>
    <text x="-200" y="-201">-2,-2</text>
    <text x="-100" y="-201">-1,-2</text>
    <text x="0" y="-201">0,-2</text>
    <text x="100" y="-201">1,-2</text>
    <text x="200" y="-201">2,-2</text>
    <text x="300" y="-201">3,-2</text>
    <text x="400" y="-201">4,-2</text>
    <text x="500" y="-201">5,-2</text>
    <text x="600" y="-201">6,-2</text>
    <text x="700" y="-201">7,-2</text>
    <text x="800" y="-201">8,-2</text>
    <text x="900" y="-201">9,-2</text>

    <!-- row -3 -->
    <text x="-900" y="-301">-9,-3</text>
    <text x="-800" y="-301">-8,-3</text>
    <text x="-700" y="-301">-7,-3</text>
    <text x="-600" y="-301">-6,-3</text>
    <text x="-500" y="-301">-5,-3</text>
    <text x="-400" y="-301">-4,-3</text>
    <text x="-300" y="-301">-3,-3</text>
    <text x="-200" y="-301">-2,-3</text>
    <text x="-100" y="-301">-1,-3</text>
    <text x="0" y="-301">0,-3</text>
    <text x="100" y="-301">1,-3</text>
    <text x="200" y="-301">2,-3</text>
    <text x="300" y="-301">3,-3</text>
    <text x="400" y="-301">4,-3</text>
    <text x="500" y="-301">5,-3</text>
    <text x="600" y="-301">6,-3</text>
    <text x="700" y="-301">7,-3</text>
    <text x="800" y="-301">8,-3</text>
    <text x="900" y="-301">9,-3</text>

    <!-- row -4 -->
    <text x="-900" y="-401">-9,-4</text>
    <text x="-800" y="-401">-8,-4</text>
    <text x="-700" y="-401">-7,-4</text>
    <text x="-600" y="-401">-6,-4</text>
    <text x="-500" y="-401">-5,-4</text>
    <text x="-400" y="-401">-4,-4</text>
    <text x="-300" y="-401">-3,-4</text>
    <text x="-200" y="-401">-2,-4</text>
    <text x="-100" y="-401">-1,-4</text>
    <text x="0" y="-401">0,-4</text>
    <text x="100" y="-401">1,-4</text>
    <text x="200" y="-401">2,-4</text>
    <text x="300" y="-401">3,-4</text>
    <text x="400" y="-401">4,-4</text>
    <text x="500" y="-401">5,-4</text>
    <text x="600" y="-401">6,-4</text>
    <text x="700" y="-401">7,-4</text>
    <text x="800" y="-401">8,-4</text>
    <text x="900" y="-401">9,-4</text>
    
    <!-- row -5 -->
    <text x="-900" y="-501">-9,-5</text>
    <text x="-800" y="-501">-8,-5</text>
    <text x="-700" y="-501">-7,-5</text>
    <text x="-600" y="-501">-6,-5</text>
    <text x="-500" y="-501">-5,-5</text>
    <text x="-400" y="-501">-4,-5</text>
    <text x="-300" y="-501">-3,-5</text>
    <text x="-200" y="-501">-2,-5</text>
    <text x="-100" y="-501">-1,-5</text>
    <text x="0" y="-501">0,-5</text>
    <text x="100" y="-501">1,-5</text>
    <text x="200" y="-501">2,-5</text>
    <text x="300" y="-501">3,-5</text>
    <text x="400" y="-501">4,-5</text>
    <text x="500" y="-501">5,-5</text>
    <text x="600" y="-501">6,-5</text>
    <text x="700" y="-501">7,-5</text>
    <text x="800" y="-501">8,-5</text>
    <text x="900" y="-501">9,-5</text>

    <!-- row -6 -->
    <text x="-900" y="-601">-9,-6</text>
    <text x="-800" y="-601">-8,-6</text>
    <text x="-700" y="-601">-7,-6</text>
    <text x="-600" y="-601">-6,-6</text>
    <text x="-500" y="-601">-5,-6</text>
    <text x="-400" y="-601">-4,-6</text>
    <text x="-300" y="-601">-3,-6</text>
    <text x="-200" y="-601">-2,-6</text>
    <text x="-100" y="-601">-1,-6</text>
    <text x="0" y="-601">0,-6</text>
    <text x="100" y="-601">1,-6</text>
    <text x="200" y="-601">2,-6</text>
    <text x="300" y="-601">3,-6</text>
    <text x="400" y="-601">4,-6</text>
    <text x="500" y="-601">5,-6</text>
    <text x="600" y="-601">6,-6</text>
    <text x="700" y="-601">7,-6</text>
    <text x="800" y="-601">8,-6</text>
    <text x="900" y="-601">9,-6</text>

    <!-- row -7 -->
    <text x="-900" y="-701">-9,-7</text>
    <text x="-800" y="-701">-8,-7</text>
    <text x="-700" y="-701">-7,-7</text>
    <text x="-600" y="-701">-6,-7</text>
    <text x="-500" y="-701">-5,-7</text>
    <text x="-400" y="-701">-4,-7</text>
    <text x="-300" y="-701">-3,-7</text>
    <text x="-200" y="-701">-2,-7</text>
    <text x="-100" y="-701">-1,-7</text>
    <text x="0" y="-701">0,-7</text>
    <text x="100" y="-701">1,-7</text>
    <text x="200" y="-701">2,-7</text>
    <text x="300" y="-701">3,-7</text>
    <text x="400" y="-701">4,-7</text>
    <text x="500" y="-701">5,-7</text>
    <text x="600" y="-701">6,-7</text>
    <text x="700" y="-701">7,-7</text>
    <text x="800" y="-701">8,-7</text>
    <text x="900" y="-701">9,-7</text>

    <!-- row -8 -->
    <text x="-900" y="-801">-9,-8</text>
    <text x="-800" y="-801">-8,-8</text>
    <text x="-700" y="-801">-7,-8</text>
    <text x="-600" y="-801">-6,-8</text>
    <text x="-500" y="-801">-5,-8</text>
    <text x="-400" y="-801">-4,-8</text>
    <text x="-300" y="-801">-3,-8</text>
    <text x="-200" y="-801">-2,-8</text>
    <text x="-100" y="-801">-1,-8</text>
    <text x="0" y="-801">0,-8</text>
    <text x="100" y="-801">1,-8</text>
    <text x="200" y="-801">2,-8</text>
    <text x="300" y="-801">3,-8</text>
    <text x="400" y="-801">4,-8</text>
    <text x="500" y="-801">5,-8</text>
    <text x="600" y="-801">6,-8</text>
    <text x="700" y="-801">7,-8</text>
    <text x="800" y="-801">8,-8</text>
    <text x="900" y="-801">9,-8</text>

    <!-- row -9 -->
    <text x="-900" y="-901">-9,-9</text>
    <text x="-800" y="-901">-8,-9</text>
    <text x="-700" y="-901">-7,-9</text>
    <text x="-600" y="-901">-6,-9</text>
    <text x="-500" y="-901">-5,-9</text>
    <text x="-400" y="-901">-4,-9</text>
    <text x="-300" y="-901">-3,-9</text>
    <text x="-200" y="-901">-2,-9</text>
    <text x="-100" y="-901">-1,-9</text>
    <text x="0" y="-901">0,-9</text>
    <text x="100" y="-901">1,-9</text>
    <text x="200" y="-901">2,-9</text>
    <text x="300" y="-901">3,-9</text>
    <text x="400" y="-901">4,-9</text>
    <text x="500" y="-901">5,-9</text>
    <text x="600" y="-901">6,-9</text>
    <text x="700" y="-901">7,-9</text>
    <text x="800" y="-901">8,-9</text>
    <text x="900" y="-901">9,-9</text>
  </g><!-- matrix_cells -->

</g><!-- grid -->
</g><!-- normalizer -->
</svg>

